<svg width="41" height="43" viewBox="0 0 41 43" fill="none" xmlns="http://www.w3.org/2000/svg">
<g clip-path="url(#clip0_3114_4004)">
<path d="M19.3564 0.71586L0.895107 10.3434C0.344886 10.6306 0 11.1994 0 11.8204V14.4995C0 15.419 0.745218 16.1646 1.66429 16.1646H38.8857C39.8048 16.1646 40.55 15.419 40.55 14.4995V11.8228C40.55 11.1985 40.2009 10.6264 39.6455 10.341L20.8858 0.711159C20.4056 0.464359 19.8352 0.46624 19.3569 0.71586H19.3564ZM20.3032 12.1641C18.715 12.1641 17.4276 10.8713 17.4276 9.28708C17.4276 7.0767 19.9282 5.44876 22.2348 7.06025C22.3495 7.14016 22.4491 7.24029 22.529 7.35452C24.1397 9.66221 22.5125 12.1641 20.3032 12.1641Z" fill="black"/>
<path d="M39.8435 39.6036V42.4242H0.703125V39.6036H3.78079V19.4883H6.60003V39.6036H13.8314V19.4883H16.6506V39.6036H23.8819V19.4883H26.7012V39.6036H33.9325V19.4883H36.7518V39.6036H39.8435Z" fill="black"/>
<path d="M10.1682 18.2891H2.92188V42.4218H10.1682V18.2891Z" fill="black"/>
<path d="M19.2815 18.2891H12.0352V42.4218H19.2815V18.2891Z" fill="black"/>
<path d="M28.2815 18.2891H21.0352V42.4218H28.2815V18.2891Z" fill="black"/>
<path d="M37.4768 18.2891H30.2305V42.4218H37.4768V18.2891Z" fill="black"/>
</g>
<defs>
<clipPath id="clip0_3114_4004">
<rect width="40.55" height="41.8966" fill="none" transform="translate(0 0.527344)"/>
</clipPath>
</defs>
</svg>
