<svg width="36" height="55" viewBox="0 0 36 55" fill="none" xmlns="http://www.w3.org/2000/svg">
<g clip-path="url(#clip0_3114_4877)">
<path d="M15.4512 3.93529C16.3994 3.93529 17.168 3.16627 17.168 2.21764C17.168 1.26901 16.3994 0.5 15.4512 0.5C14.503 0.5 13.7344 1.26901 13.7344 2.21764C13.7344 3.16627 14.503 3.93529 15.4512 3.93529Z" fill="#1E1E1E"/>
<path d="M20.0293 3.93529C20.9775 3.93529 21.7462 3.16627 21.7462 2.21764C21.7462 1.26901 20.9775 0.5 20.0293 0.5C19.0812 0.5 18.3125 1.26901 18.3125 2.21764C18.3125 3.16627 19.0812 3.93529 20.0293 3.93529Z" fill="#1E1E1E"/>
<path d="M27.4693 41.1509L27.9626 41.9616C30.9923 41.0203 33.1921 38.1931 33.1921 34.8528V11.9509C33.1921 7.84004 29.8614 4.50781 25.7525 4.50781H9.72868C5.61972 4.50781 2.28906 7.84004 2.28906 11.9509V34.8528C2.28906 38.1931 4.4889 41.0203 7.51854 41.9616L8.01185 41.1509H27.4693ZM25.7525 38.8607C24.1718 38.8607 22.8911 37.5793 22.8911 35.9979C22.8911 34.4166 24.1718 33.1352 25.7525 33.1352C27.3331 33.1352 28.6139 34.4166 28.6139 35.9979C28.6139 37.5793 27.3331 38.8607 25.7525 38.8607ZM13.1623 6.798C13.1623 6.16591 13.6751 5.65291 14.3069 5.65291H21.1742C21.806 5.65291 22.3188 6.16591 22.3188 6.798V9.08819C22.3188 9.72029 21.806 10.2333 21.1742 10.2333H14.3069C13.6751 10.2333 13.1623 9.72029 13.1623 9.08819V6.798ZM6.29501 14.8137C6.29501 12.9162 7.83215 11.3784 9.72868 11.3784H25.7525C27.649 11.3784 29.1861 12.9162 29.1861 14.8137V19.394C29.1861 21.2915 27.649 22.8293 25.7525 22.8293H9.72868C7.83215 22.8293 6.29501 21.2915 6.29501 19.394V14.8137ZM6.86729 35.9979C6.86729 34.4166 8.14805 33.1352 9.72868 33.1352C11.3093 33.1352 12.5901 34.4166 12.5901 35.9979C12.5901 37.5793 11.3093 38.8607 9.72868 38.8607C8.14805 38.8607 6.86729 37.5793 6.86729 35.9979Z" fill="#1E1E1E"/>
<path d="M27.9627 41.9592L27.4694 41.1484H8.0119L7.51859 41.9592L0 54.317H5.1505L10.301 45.7288H25.1802L30.3307 54.317H35.4813L27.9627 41.9592Z" fill="#1E1E1E"/>
</g>
<defs>
<clipPath id="clip0_3114_4877">
<rect width="35.4813" height="53.8195" fill="none" transform="translate(0 0.5)"/>
</clipPath>
</defs>
</svg>
