<svg width="56" height="33" viewBox="0 0 56 33" fill="none" xmlns="http://www.w3.org/2000/svg">
<g clip-path="url(#clip0_3114_3988)">
<path d="M55.7563 12.5146C55.7563 12.3992 55.6216 12.3254 55.511 12.3791L54.4676 12.8843C54.2713 12.9797 54.1326 13.1512 54.0917 13.3509L53.8713 14.4357L36.799 17.4304C35.2699 14.4453 32.6036 11.9646 29.8179 11.1324L28.7793 1.07799C28.7545 0.838255 28.5525 0.65625 28.3121 0.65625H27.4049C27.1637 0.65625 26.9617 0.838255 26.9377 1.07799L25.8999 11.1324C23.1158 11.9646 20.4519 14.4421 18.922 17.4248L1.88411 14.4357L1.66372 13.3509C1.62285 13.1512 1.48501 12.9797 1.28866 12.8843L0.244429 12.3791C0.133835 12.3254 0 12.3992 0 12.5146V17.0415C0 17.6573 0.403909 18.2129 1.025 18.4518L4.03348 19.6072C3.56546 20.1324 3.28096 20.8235 3.28096 21.582C3.28096 23.2208 4.60889 24.5502 6.24777 24.5502C7.88664 24.5502 9.20656 23.2289 9.21377 21.5964L10.8198 22.213C10.2877 22.7494 9.95908 23.4878 9.95908 24.3033C9.95908 25.9421 11.287 27.2715 12.9259 27.2715C14.5648 27.2715 15.8927 25.9429 15.8927 24.3033C15.8927 24.2551 15.8911 24.207 15.8887 24.1597L17.9162 24.9383C19.1368 29.4515 23.6327 32.807 27.8585 32.807C32.0843 32.807 36.5698 29.4595 37.7959 24.9543L39.8283 24.1742C39.8267 24.2175 39.8251 24.26 39.8251 24.3033C39.8251 25.9421 41.153 27.2715 42.7919 27.2715C44.4308 27.2715 45.7587 25.9429 45.7587 24.3033C45.7587 23.4935 45.4341 22.759 44.9076 22.2234L46.504 21.6101C46.5192 23.2361 47.8408 24.5494 49.47 24.5494C51.0993 24.5494 52.4368 23.2208 52.4368 21.5812C52.4368 20.8283 52.1555 20.1404 51.6939 19.6176L54.7313 18.451C55.3523 18.2121 55.7571 17.6565 55.7571 17.0407V12.5138L55.7563 12.5146ZM6.24696 22.8633C5.53932 22.8633 4.96632 22.2892 4.96632 21.582C4.96632 20.9807 5.38144 20.4771 5.94003 20.3392L7.30883 20.8652C7.44747 21.0697 7.52841 21.3166 7.52841 21.582C7.52841 22.29 6.95541 22.8633 6.24777 22.8633H6.24696ZM12.9251 25.5845C12.2174 25.5845 11.6444 25.0104 11.6444 24.3033C11.6444 23.5961 12.2174 23.022 12.9251 23.022L13.7778 23.3491C14.0398 23.5841 14.2057 23.924 14.2057 24.3033C14.2057 25.0112 13.6319 25.5845 12.9251 25.5845ZM26.9497 22.1994C26.1523 22.1545 25.3581 22.0518 24.5719 21.8899C23.8699 21.7456 23.1751 21.5539 22.4931 21.315C21.3543 20.9197 20.4767 19.515 20.4767 18.362C20.4767 18.1151 20.5168 17.8994 20.5913 17.7174C20.8638 17.0447 21.5971 16.8226 22.4931 17.1329C23.9388 17.6388 25.4398 17.9331 26.9497 18.0181V22.2002V22.1994ZM33.2223 21.315C32.5523 21.5491 31.8711 21.7383 31.1819 21.8819C30.3837 22.0486 29.5759 22.1545 28.7657 22.2002V18.0181C30.2755 17.9339 31.7758 17.6388 33.2223 17.1329C34.1199 16.8218 34.8564 17.0463 35.1264 17.7238C35.1994 17.9042 35.2386 18.1175 35.2386 18.362C35.2386 19.515 34.3603 20.9197 33.2223 21.315ZM42.7903 25.5853C42.0827 25.5853 41.5097 25.0112 41.5097 24.3041C41.5097 23.9376 41.6643 23.6081 41.9104 23.3748L42.8232 23.0244C43.5156 23.042 44.0709 23.6073 44.0709 24.3041C44.0709 25.0008 43.4971 25.5853 42.7903 25.5853ZM49.4684 22.8641C48.7608 22.8641 48.1878 22.29 48.1878 21.5828C48.1878 21.3254 48.2647 21.0857 48.3953 20.8845L49.7986 20.3457C50.346 20.4916 50.7491 20.9895 50.7491 21.5828C50.7491 22.2908 50.1753 22.8641 49.4684 22.8641Z" fill="#1E1E1E"/>
<path d="M20.6255 12.8347C21.6641 11.8141 22.7925 11.0043 23.9529 10.4358L15.914 9.02465L15.8122 8.52594C15.7938 8.43374 15.7305 8.35516 15.6399 8.31106L15.1599 8.07855C15.1086 8.05369 15.0469 8.08817 15.0469 8.14108V10.2241C15.0469 10.508 15.2328 10.7637 15.5189 10.8736L20.6255 12.8347Z" fill="#1E1E1E"/>
<path d="M40.2355 10.8736C40.5216 10.7637 40.7075 10.508 40.7075 10.2241V8.14108C40.7075 8.08817 40.6458 8.05369 40.5953 8.07855L40.1145 8.31106C40.0247 8.35516 39.9606 8.43374 39.9422 8.52594L39.8404 9.02465L31.7734 10.4406C32.9347 11.0107 34.0623 11.8221 35.1009 12.8452L40.2355 10.8736Z" fill="#1E1E1E"/>
</g>
<defs>
<clipPath id="clip0_3114_3988">
<rect width="55.7562" height="32.1515" fill="none" transform="translate(0 0.65625)"/>
</clipPath>
</defs>
</svg>
