<svg width="41" height="47" viewBox="0 0 41 47" fill="none" xmlns="http://www.w3.org/2000/svg">
<g clip-path="url(#clip0_3114_3974)">
<path d="M40.55 45.1082V46.9194H0V45.1082C0 44.5079 0.486057 44.0216 1.08616 44.0216H2.89643V11.4214C2.89643 10.2215 3.86854 9.24806 5.06875 9.24806H13.0339V2.72803C13.0339 1.52726 14.006 0.554688 15.2063 0.554688H25.3438C26.544 0.554688 27.5161 1.52726 27.5161 2.72803V9.24806H35.4813C36.6815 9.24806 37.6536 10.2215 37.6536 11.4214V44.0216H39.4638C40.0639 44.0216 40.55 44.5079 40.55 45.1082ZM27.8781 17.9414H24.2576C23.6575 17.9414 23.1714 18.4277 23.1714 19.0281V22.6504C23.1714 23.2507 23.6575 23.737 24.2576 23.737H27.8781C28.4782 23.737 28.9643 23.2507 28.9643 22.6504V19.0281C28.9643 18.4277 28.4782 17.9414 27.8781 17.9414ZM12.6719 23.737H16.2924C16.8925 23.737 17.3786 23.2507 17.3786 22.6504V19.0281C17.3786 18.4277 16.8925 17.9414 16.2924 17.9414H12.6719C12.0718 17.9414 11.5857 18.4277 11.5857 19.0281V22.6504C11.5857 23.2507 12.0718 23.737 12.6719 23.737ZM22.0853 35.3282H18.4647C17.8646 35.3282 17.3786 35.8145 17.3786 36.4149V44.0216H23.1714V36.4149C23.1714 35.8145 22.6854 35.3282 22.0853 35.3282ZM27.8781 26.6348H24.2576C23.6575 26.6348 23.1714 27.1211 23.1714 27.7215V31.3437C23.1714 31.9441 23.6575 32.4304 24.2576 32.4304H27.8781C28.4782 32.4304 28.9643 31.9441 28.9643 31.3437V27.7215C28.9643 27.1211 28.4782 26.6348 27.8781 26.6348ZM17.3786 27.7215C17.3786 27.1211 16.8925 26.6348 16.2924 26.6348H12.6719C12.0718 26.6348 11.5857 27.1211 11.5857 27.7215V31.3437C11.5857 31.9441 12.0718 32.4304 12.6719 32.4304H16.2924C16.8925 32.4304 17.3786 31.9441 17.3786 31.3437V27.7215ZM16.4734 9.24806H18.8268V11.6025C18.8268 11.9023 19.0703 12.1459 19.3699 12.1459H21.1801C21.4797 12.1459 21.7232 11.9023 21.7232 11.6025V9.24806H24.0766C24.3762 9.24806 24.6196 9.00447 24.6196 8.70473V6.89361C24.6196 6.59387 24.3762 6.35027 24.0766 6.35027H21.7232V3.99582C21.7232 3.69607 21.4797 3.45248 21.1801 3.45248H19.3699C19.0703 3.45248 18.8268 3.69607 18.8268 3.99582V6.35027H16.4734C16.1738 6.35027 15.9304 6.59387 15.9304 6.89361V8.70473C15.9304 9.00447 16.1738 9.24806 16.4734 9.24806Z" fill="#1E1E1E"/>
</g>
<defs>
<clipPath id="clip0_3114_3974">
<rect width="40.55" height="46.3647" fill="none" transform="translate(0 0.554688)"/>
</clipPath>
</defs>
</svg>
